PathFileType	4	(x/y/z)	TRC_MarkerData\Calibration\Standing_Cal_SL_Passive0001.trc
DataRate	CameraRate	NumFrames	NumMarkers	Units	OrigDataRate	OrigDataStartFrame	OrigNumFrames
240	240	10	50	mm	240	1	2400
Frame#	Time	R_AC			L_AC			HEAD			STERN			C7			L_IC			R_IC			L_ASIS			R_ASIS			L_GT			R_GT			L_PSIS			R_PSIS			SACRAL			L_LAT_KNEE			L_MED_KNEE			R_LAT_KNEE			R_MED_KNEE			L_LAT_ANK			L_MED_ANK			R_LAT_ANK			R_MED_ANK			L_THIGH_PROX_POST			L_THIGH_PROX_ANT			L_THIGH_DIST_ANT			L_THIGH_DIST_POST			R_THIGH_PROX_POST			R_THIGH_PROX_ANT			R_THIGH_DIST_ANT			R_THIGH_DIST_POST			L_SHANK_PROX_POST			L_SHANK_PROX_ANT			L_SHANK_DIST_ANT			L_SHANK_DIST_POST			R_SHANK_PROX_POST			R_SHANK_PROX_ANT			R_SHANK_DIST_ANT			R_SHANK_DIST_POST			L_HEEL_LAT			L_HEEL_SUP			L_HEEL_MED			R_HEEL_LAT			R_HEEL_SUP			R_HEEL_MED			L_1ST_MET			L_5TH_MET			L_TOE			R_1ST_MET			R_5TH_MET			R_TOE			
		X1	Y1	Z1	X2	Y2	Z2	X3	Y3	Z3	X4	Y4	Z4	X5	Y5	Z5	X6	Y6	Z6	X7	Y7	Z7	X8	Y8	Z8	X9	Y9	Z9	X10	Y10	Z10	X11	Y11	Z11	X12	Y12	Z12	X13	Y13	Z13	X14	Y14	Z14	X15	Y15	Z15	X16	Y16	Z16	X17	Y17	Z17	X18	Y18	Z18	X19	Y19	Z19	X20	Y20	Z20	X21	Y21	Z21	X22	Y22	Z22	X23	Y23	Z23	X24	Y24	Z24	X25	Y25	Z25	X26	Y26	Z26	X27	Y27	Z27	X28	Y28	Z28	X29	Y29	Z29	X30	Y30	Z30	X31	Y31	Z31	X32	Y32	Z32	X33	Y33	Z33	X34	Y34	Z34	X35	Y35	Z35	X36	Y36	Z36	X37	Y37	Z37	X38	Y38	Z38	X39	Y39	Z39	X40	Y40	Z40	X41	Y41	Z41	X42	Y42	Z42	X43	Y43	Z43	X44	Y44	Z44	X45	Y45	Z45	X46	Y46	Z46	X47	Y47	Z47	X48	Y48	Z48	X49	Y49	Z49	X50	Y50	Z50	

1	0	579.05	1584.5	479.77	583.65	1608.2	180.62	691.98	1857.1	345.98	705.5	1530.8	336.36	557.49	1598.9	332.12	627.76	1133.4	150.64	639.38	1122	490.39	696.99	1054.3	178.66	699.93	1036.2	451.27	599.01	983.94	125.56	606.83	970.65	498.73	493.75	1078.2	272.02	503.98	1072.4	378.66	482.04	1054.9	327.18	593.19	573.41	124.75	618.02	567.46	258.9	544.44	559.24	497.22	569.22	540.65	373.21	492.64	131.28	105.69	495.86	128.02	184.37	468.87	97.31	483.65	507.55	115.98	390.2	564.27	832.74	129.47	627.63	822.7	117.38	622.46	746.92	122.68	560.03	758.55	134.43	561.34	807.79	504.03	628.89	799.37	512.72	614.04	725.65	507.84	546.21	733.66	496.41	594.18	518.82	127.16	638.1	528.9	138.15	633.93	478.54	140.22	584.43	465.73	128.19	443.32	410.23	487.19	508.34	415.73	516.35	510.15	341.03	512.21	446.37	333.84	486	427.21	55.844	105	418.88	78.661	142.41	428.87	46.087	171.81	409.72	41.681	451.76	407.89	66.949	416.26	427.23	39.79	387.14	656.27	47.721	185.92	633.78	47.628	82.442	707.24	56.906	161.46	655.64	48.234	428.37	606.01	32.77	530.01	691.25	52.971	485.36
2	0.0041684	579	1584.6	479.81	583.64	1608.3	180.64	691.93	1857.2	346.01	705.48	1530.8	336.36	557.45	1599	332.24	627.84	1133.5	150.68	639.39	1122	490.43	697.03	1054.4	178.65	699.94	1036.2	451.29	599.06	983.96	125.56	606.82	970.66	498.67	493.79	1078.2	272.04	504.07	1072.5	378.68	482.16	1054.9	327.16	593.23	573.43	124.75	617.96	567.49	258.92	544.43	559.28	497.24	569.23	540.67	373.2	492.64	131.28	105.67	495.9	128.08	184.36	468.93	97.348	483.7	507.55	116.01	390.23	564.31	832.71	129.58	627.71	822.62	117.44	622.52	746.86	122.7	560.09	758.53	134.57	561.41	807.77	504	628.87	799.4	512.7	614.03	725.71	507.85	546.28	733.68	496.48	594.18	518.91	127.18	638.13	528.92	138.13	633.97	478.58	140.16	584.4	465.75	128.24	443.33	410.26	487.21	508.32	415.76	516.32	510.19	341.04	512.2	446.38	333.87	486.1	427.2	55.866	105.01	418.87	78.775	142.39	428.88	46.095	171.82	409.72	41.696	451.81	407.73	67.03	416.17	427.19	39.816	387.13	656.25	47.745	185.95	633.79	47.654	82.441	707.21	56.922	161.39	655.64	48.242	428.39	606.02	32.784	530.05	691.22	53.02	485.32
3	0.0083368	578.95	1584.7	479.85	583.64	1608.4	180.66	691.88	1857.2	346.04	705.46	1530.8	336.36	557.41	1599.1	332.36	627.92	1133.5	150.73	639.39	1122	490.47	697.07	1054.4	178.64	699.95	1036.2	451.31	599.12	983.99	125.55	606.8	970.66	498.62	493.83	1078.2	272.07	504.17	1072.6	378.71	482.27	1055	327.14	593.27	573.45	124.75	617.9	567.51	258.94	544.42	559.31	497.26	569.25	540.69	373.19	492.64	131.28	105.65	495.94	128.13	184.34	468.98	97.385	483.76	507.56	116.03	390.26	564.37	832.67	129.68	627.8	822.55	117.5	622.58	746.81	122.71	560.15	758.5	134.71	561.48	807.74	503.98	628.84	799.43	512.69	614.03	725.76	507.86	546.35	733.7	496.56	594.19	519	127.21	638.16	528.94	138.12	634.02	478.62	140.1	584.37	465.78	128.29	443.34	410.3	487.24	508.29	415.79	516.29	510.23	341.06	512.2	446.39	333.91	486.19	427.19	55.889	105.02	418.86	78.887	142.37	428.89	46.103	171.83	409.73	41.712	451.85	407.57	67.109	416.08	427.16	39.841	387.12	656.23	47.768	185.97	633.8	47.68	82.44	707.18	56.937	161.33	655.64	48.249	428.4	606.04	32.798	530.09	691.19	53.067	485.29
4	0.012505	578.91	1584.8	479.89	583.64	1608.5	180.67	691.83	1857.2	346.07	705.43	1530.9	336.36	557.36	1599.2	332.48	628	1133.6	150.77	639.4	1122.1	490.51	697.11	1054.4	178.63	699.96	1036.3	451.33	599.18	984.02	125.54	606.79	970.67	498.57	493.88	1078.3	272.09	504.25	1072.6	378.73	482.39	1055	327.12	593.31	573.47	124.75	617.83	567.54	258.96	544.42	559.34	497.29	569.26	540.71	373.19	492.64	131.28	105.63	495.98	128.18	184.33	469.03	97.421	483.81	507.56	116.06	390.29	564.42	832.64	129.79	627.89	822.47	117.57	622.65	746.76	122.73	560.21	758.48	134.84	561.54	807.72	503.96	628.82	799.45	512.68	614.03	725.82	507.88	546.42	733.72	496.63	594.2	519.08	127.23	638.19	528.95	138.1	634.06	478.66	140.04	584.34	465.8	128.34	443.35	410.34	487.27	508.27	415.82	516.26	510.26	341.07	512.2	446.4	333.94	486.28	427.18	55.911	105.03	418.85	78.995	142.35	428.9	46.111	171.84	409.73	41.727	451.89	407.42	67.186	416	427.14	39.867	387.12	656.21	47.79	186	633.8	47.705	82.438	707.16	56.952	161.27	655.64	48.256	428.42	606.05	32.81	530.13	691.16	53.112	485.26
5	0.016674	578.86	1584.8	479.93	583.63	1608.6	180.68	691.79	1857.2	346.1	705.41	1530.9	336.36	557.32	1599.2	332.59	628.08	1133.7	150.82	639.4	1122.1	490.55	697.15	1054.4	178.62	699.98	1036.3	451.35	599.24	984.04	125.54	606.78	970.67	498.53	493.92	1078.3	272.11	504.34	1072.7	378.75	482.5	1055	327.1	593.35	573.49	124.75	617.78	567.56	258.98	544.41	559.37	497.31	569.28	540.73	373.18	492.64	131.29	105.61	496.02	128.23	184.31	469.08	97.454	483.86	507.56	116.08	390.32	564.47	832.61	129.88	627.97	822.4	117.63	622.71	746.71	122.75	560.27	758.46	134.96	561.6	807.7	503.95	628.81	799.48	512.68	614.02	725.87	507.89	546.48	733.74	496.7	594.21	519.16	127.25	638.22	528.97	138.09	634.1	478.69	139.99	584.32	465.83	128.38	443.36	410.37	487.3	508.24	415.85	516.24	510.3	341.08	512.2	446.42	333.97	486.37	427.18	55.932	105.04	418.85	79.098	142.33	428.91	46.12	171.84	409.73	41.742	451.93	407.27	67.258	415.92	427.11	39.892	387.11	656.19	47.81	186.03	633.81	47.728	82.437	707.13	56.966	161.21	655.63	48.263	428.43	606.06	32.821	530.17	691.13	53.153	485.23
6	0.020842	578.81	1584.9	479.96	583.63	1608.6	180.69	691.75	1857.2	346.12	705.38	1530.9	336.37	557.28	1599.3	332.69	628.16	1133.7	150.86	639.41	1122.2	490.59	697.19	1054.5	178.62	699.99	1036.3	451.37	599.3	984.07	125.54	606.77	970.68	498.5	493.97	1078.3	272.13	504.42	1072.7	378.77	482.6	1055	327.08	593.39	573.5	124.76	617.73	567.58	258.99	544.4	559.4	497.33	569.29	540.74	373.18	492.64	131.29	105.6	496.05	128.27	184.3	469.13	97.485	483.91	507.56	116.1	390.35	564.52	832.58	129.97	628.06	822.33	117.69	622.78	746.67	122.77	560.32	758.44	135.08	561.66	807.68	503.94	628.79	799.51	512.68	614.02	725.92	507.91	546.54	733.76	496.77	594.22	519.24	127.27	638.25	528.99	138.08	634.14	478.73	139.94	584.3	465.85	128.42	443.37	410.4	487.32	508.22	415.88	516.22	510.33	341.1	512.2	446.43	333.99	486.45	427.17	55.953	105.05	418.84	79.193	142.32	428.92	46.129	171.85	409.74	41.756	451.97	407.14	67.325	415.84	427.09	39.916	387.1	656.18	47.828	186.05	633.81	47.75	82.435	707.1	56.979	161.16	655.63	48.269	428.44	606.07	32.83	530.2	691.1	53.189	485.21
7	0.02501	578.76	1585	479.99	583.63	1608.7	180.7	691.71	1857.2	346.15	705.36	1531	336.37	557.23	1599.3	332.79	628.24	1133.7	150.9	639.41	1122.2	490.63	697.24	1054.5	178.62	700.01	1036.3	451.4	599.36	984.09	125.54	606.76	970.69	498.47	494.01	1078.3	272.15	504.5	1072.8	378.79	482.7	1055	327.07	593.43	573.52	124.76	617.68	567.59	259.01	544.4	559.43	497.35	569.31	540.76	373.17	492.64	131.3	105.59	496.08	128.32	184.29	469.17	97.513	483.95	507.57	116.13	390.37	564.58	832.56	130.05	628.13	822.27	117.74	622.84	746.63	122.78	560.38	758.42	135.18	561.71	807.67	503.94	628.78	799.53	512.68	614.02	725.96	507.93	546.6	733.78	496.83	594.23	519.3	127.29	638.28	529.01	138.07	634.18	478.76	139.9	584.29	465.87	128.46	443.38	410.43	487.34	508.2	415.9	516.2	510.35	341.11	512.2	446.44	334.02	486.52	427.17	55.972	105.06	418.83	79.279	142.3	428.94	46.138	171.86	409.74	41.769	452	407.02	67.386	415.78	427.08	39.939	387.1	656.16	47.845	186.07	633.82	47.771	82.434	707.08	56.991	161.12	655.63	48.275	428.46	606.08	32.837	530.23	691.08	53.221	485.19
8	0.029179	578.71	1585.1	480.02	583.63	1608.8	180.7	691.68	1857.3	346.17	705.33	1531	336.37	557.19	1599.4	332.88	628.32	1133.8	150.94	639.41	1122.2	490.66	697.28	1054.5	178.62	700.02	1036.3	451.42	599.42	984.1	125.54	606.75	970.69	498.44	494.06	1078.4	272.16	504.57	1072.8	378.8	482.79	1055	327.05	593.46	573.53	124.77	617.64	567.61	259.03	544.4	559.46	497.38	569.32	540.78	373.17	492.64	131.3	105.58	496.11	128.36	184.29	469.2	97.538	483.99	507.57	116.14	390.39	564.63	832.53	130.13	628.21	822.22	117.79	622.9	746.6	122.8	560.44	758.41	135.27	561.76	807.65	503.94	628.76	799.56	512.69	614.02	726	507.96	546.65	733.79	496.89	594.24	519.36	127.31	638.31	529.02	138.06	634.21	478.78	139.87	584.28	465.89	128.49	443.38	410.46	487.36	508.18	415.92	516.19	510.38	341.13	512.21	446.45	334.04	486.59	427.17	55.991	105.07	418.83	79.357	142.29	428.95	46.147	171.86	409.74	41.781	452.03	406.91	67.44	415.72	427.07	39.961	387.09	656.14	47.859	186.09	633.82	47.789	82.432	707.06	57.002	161.08	655.63	48.279	428.47	606.09	32.843	530.26	691.07	53.249	485.18
9	0.033347	578.67	1585.2	480.04	583.63	1608.8	180.7	691.66	1857.3	346.19	705.3	1531	336.38	557.15	1599.4	332.95	628.4	1133.8	150.99	639.41	1122.2	490.7	697.33	1054.5	178.63	700.04	1036.3	451.45	599.47	984.12	125.55	606.75	970.7	498.43	494.1	1078.4	272.17	504.63	1072.8	378.82	482.87	1055	327.03	593.5	573.55	124.77	617.61	567.62	259.04	544.39	559.48	497.4	569.34	540.8	373.17	492.65	131.31	105.57	496.13	128.39	184.28	469.24	97.56	484.02	507.57	116.16	390.41	564.68	832.51	130.2	628.28	822.18	117.84	622.96	746.57	122.82	560.49	758.39	135.36	561.81	807.64	503.95	628.75	799.58	512.7	614.02	726.03	507.98	546.7	733.81	496.95	594.26	519.42	127.32	638.34	529.03	138.06	634.25	478.8	139.84	584.28	465.9	128.52	443.39	410.48	487.38	508.17	415.94	516.18	510.4	341.14	512.22	446.46	334.06	486.65	427.17	56.008	105.08	418.83	79.426	142.28	428.96	46.156	171.87	409.74	41.791	452.06	406.82	67.488	415.67	427.06	39.981	387.09	656.13	47.87	186.11	633.83	47.806	82.431	707.05	57.011	161.05	655.63	48.283	428.48	606.1	32.847	530.28	691.05	53.272	485.16
10	0.037516	578.62	1585.3	480.06	583.63	1608.9	180.7	691.64	1857.3	346.21	705.27	1531	336.38	557.11	1599.5	333.02	628.47	1133.8	151.03	639.41	1122.3	490.73	697.37	1054.5	178.64	700.05	1036.3	451.48	599.53	984.14	125.55	606.75	970.71	498.42	494.14	1078.4	272.18	504.68	1072.9	378.83	482.94	1055	327.01	593.54	573.56	124.78	617.58	567.63	259.06	544.39	559.5	497.42	569.35	540.81	373.18	492.65	131.32	105.56	496.15	128.43	184.28	469.27	97.578	484.05	507.57	116.18	390.43	564.73	832.5	130.26	628.35	822.14	117.88	623.02	746.54	122.84	560.54	758.38	135.43	561.85	807.64	503.96	628.75	799.59	512.72	614.02	726.07	508.01	546.75	733.82	497.01	594.28	519.46	127.34	638.37	529.05	138.06	634.28	478.82	139.82	584.28	465.92	128.55	443.39	410.51	487.4	508.15	415.96	516.18	510.42	341.15	512.23	446.47	334.08	486.71	427.17	56.024	105.09	418.82	79.486	142.27	428.97	46.165	171.88	409.75	41.801	452.08	406.74	67.529	415.63	427.06	40	387.08	656.12	47.88	186.12	633.83	47.82	82.43	707.04	57.02	161.02	655.63	48.286	428.49	606.11	32.85	530.3	691.04	53.29	485.15
